<svg xmlns="http://www.w3.org/2000/svg"  viewBox="0 0 48 48" width="394.13px" height="439.31px"><rect width="4" height="12" x="16.98" y="33.997" fill="#3ddab4"/><rect width="4" height="12" x="26.992" y="33.997" fill="#3ddab4"/><path fill="#3ddab4" d="M38,39H10V2h28V39z"/><path fill="#c2ffff" d="M34,19H14V5h20V19z"/><path fill="#2100c4" d="M18.5,8C17.672,8,17,8.672,17,9.5s0.672,1.5,1.5,1.5S20,10.328,20,9.5S19.328,8,18.5,8z M29.5,8 C28.672,8,28,8.672,28,9.5s0.672,1.5,1.5,1.5S31,10.328,31,9.5S30.328,8,29.5,8z"/><rect width="10" height="3" x="16" y="22" fill="#2100c4"/><circle cx="30.5" cy="23.5" r="1.5" fill="#2100c4"/><path fill="#f5bc00" d="M18,27h3v7h-3V27z"/><path fill="#f5bc00" d="M16,32v-3h7v3H16z"/><path fill="#f55376" d="M29.5,28c-1.381,0-2.5,1.119-2.5,2.5c0,1.381,1.119,2.5,2.5,2.5s2.5-1.119,2.5-2.5 C32,29.119,30.881,28,29.5,28z"/><path fill="#2100c4" d="M20,13c0,2.206,1.794,4,4,4s4-1.794,4-4H20z"/><path fill="#3ddab4" d="M13,20.631C7.524,21.486,3,26.892,3,33v2h4v-2c0-3.529,2.482-7.422,6-8.31V20.631z"/><path fill="#3ddab4" d="M41.017,10.034v2c0,3.534-2.49,7.434-6.017,8.313v4.059c5.483-0.847,10.017-6.258,10.017-12.372v-2 H41.017z"/><rect width="3" height="3" x="18" y="29" fill="#eb7900"/><path fill="#00b569" d="M10,26.348c0.864-0.785,1.879-1.375,3-1.658v-4.059c-1.043,0.163-2.051,0.493-3,0.96V26.348z"/><path fill="#00b569" d="M38,18.701c-0.865,0.781-1.879,1.367-3,1.646v4.059c1.043-0.161,2.051-0.489,3-0.954V18.701z"/><rect width="4" height="3" x="17" y="36" fill="#00b569"/><rect width="4" height="3" x="27" y="36" fill="#00b569"/></svg>